<?xml version="1.0" encoding="utf-8"?>
<!-- Uploaded to: SVG Repo, www.svgrepo.com, Generator: SVG Repo Mixer Tools -->
<svg fill="#000000" width="800px" height="800px" viewBox="0 0 32 32" version="1.1" xmlns="http://www.w3.org/2000/svg">
<title>crowned-heart</title>
<path d="M22.981 9.635l2.15-8.199-5.576 4.3-3.936-4.191-3.936 4.191-5.102-3.972 2.041 7.871h14.358zM21.26 5.993c0.845 0 1.531 0.685 1.531 1.531s-0.685 1.531-1.531 1.531-1.531-0.685-1.531-1.531 0.685-1.531 1.531-1.531zM15.609 5.202l1.544 1.412-1.544 2.030-1.544-2.030 1.544-1.412zM10.293 5.993c0.845 0 1.531 0.685 1.531 1.531s-0.685 1.531-1.531 1.531-1.531-0.685-1.531-1.531 0.685-1.531 1.531-1.531zM15.92 14.081c-2.977-5.589-10.406-3.507-10.591 2.4-0.198 6.295 8.042 7.889 10.591 14.174 2.414-6.284 10.433-8.257 10.622-14.174 0.202-6.308-7.651-7.519-10.622-2.4z"></path>
</svg>