<?xml version="1.0" encoding="UTF-8" standalone="no"?>
<svg version="1.0" width="2138.8999pt" height="2503.104pt" viewBox="0 0 2138.8999 2503.104"
   preserveAspectRatio="xMidYMid" xmlns="http://www.w3.org/2000/svg"
   xmlns:svg="http://www.w3.org/2000/svg">
   <path
      d="m 583.55936,2041.7894 c -2.2892,0.075 -5.20776,0.5295 -9.18163,1.084 -4.06629,0.6161 -21.81156,1.9716 -39.43213,3.0806 -60.74784,3.6966 -92.16874,7.1461 -119.64698,12.9375 -32.03739,6.7771 -61.36419,19.2235 -81.81885,34.5029 -6.90035,5.1753 -18.48154,12.2 -28.09276,16.8823 -22.05653,10.8435 -32.03785,19.9601 -40.17042,36.4717 -8.2558,16.8813 -9.73583,28.0949 -6.28564,48.4263 5.42172,31.9142 22.79597,55.6958 50.76709,69.4966 14.04715,6.9003 22.17987,9.8572 43.49707,15.895 29.94265,8.5022 50.39804,12.0756 164.50048,29.0801 20.33143,2.9573 45.8387,6.7768 56.68214,8.5019 10.84343,1.7251 31.05114,4.8061 44.97509,6.9009 53.47783,8.0094 84.53036,14.0487 117.67674,22.7974 71.22163,18.7295 117.55236,28.955 155.8741,34.5 110.52904,15.7722 195.55214,11.8296 345.01894,-15.895 47.1936,-8.7487 79.2302,-13.061 132.4615,-17.9898 116.1972,-10.7202 116.1987,-10.7212 163.8852,-17.9912 38.8146,-5.9146 45.9608,-7.146 81.3253,-14.0464 17.0044,-3.327 36.1036,-6.9008 42.5111,-8.0098 48.6723,-8.2557 109.1747,-21.0704 143.5532,-30.312 29.0802,-7.8861 46.4529,-17.1279 62.2252,-33.0234 12.3221,-12.4453 18.3604,-22.3031 23.5357,-38.3218 7.1467,-21.9333 6.1605,-43.1256 -2.8346,-61.3623 -7.0236,-14.2936 -24.3971,-29.2043 -43.9892,-37.7065 -4.3127,-1.9716 -13.6777,-7.8881 -20.5781,-13.1866 -20.4547,-15.5258 -48.7948,-28.0927 -79.3535,-35.3628 -24.1513,-5.7913 -68.7582,-10.5981 -126.9185,-13.6787 -13.1847,-0.7393 -29.4502,-1.7236 -35.9809,-2.0932 l -11.9517,-0.7398 -3.0792,4.9292 c -5.0519,8.1326 -16.6357,31.9148 -15.8964,32.7774 0.4929,0.3696 2.4638,0.7368 4.5586,0.7368 5.0521,0 40.5401,4.4385 59.8857,7.519 57.9137,9.1184 119.5252,30.4345 137.269,47.439 6.2843,6.0378 11.8272,16.265 11.8272,21.9331 0,9.3648 -12.1978,23.5352 -27.7237,32.1606 -36.5965,20.4547 -135.9119,44.7301 -252.6019,61.6114 -60.9944,8.7486 -76.645,10.1034 -150.3312,12.9375 -63.9514,2.4644 -97.3436,5.1764 -178.0531,14.7876 -112.2541,13.431 -183.97071,14.4147 -267.39122,3.5713 -21.44033,-2.7109 -68.26321,-10.596 -92.04487,-15.2784 -25.01387,-5.052 -86.00817,-16.0184 -116.19726,-20.9472 -206.39479,-33.6393 -243.60832,-42.6352 -273.42773,-66.9097 -6.16105,-4.9288 -12.44532,-16.8817 -12.44532,-23.5356 0,-6.0379 4.68121,-14.416 11.21192,-20.3306 23.41194,-20.8243 73.68713,-36.8444 156.98438,-49.9058 17.62057,-2.834 35.7341,-5.6679 40.41649,-6.4072 4.80561,-0.7393 8.25604,-1.9692 8.13282,-2.7085 0,-0.8625 -3.6967,-8.9974 -8.25585,-18.1157 -7.0236,-14.1396 -8.22466,-17.3273 -15.0923,-17.1021 z m -428.13573,151.5953 c -1.8853,-0.014 -3.84719,0.01 -5.87696,0.059 -24.35727,0.6295 -58.504463,5.9211 -87.522951,14.0537 -36.350139,10.1041 -58.0377413,24.3979 -61.73437194,40.2934 -2.09475736,9.1184 7.39339674,24.0282 21.68700994,34.1323 22.549398,15.8955 59.392988,28.3404 83.667483,28.3404 7.7629,0 8.87166,-0.371 11.58251,-3.2051 5.66817,-6.0378 4.92952,-6.652 -12.93749,-12.813 -23.781606,-8.1326 -42.758272,-18.6079 -50.39795,-27.9727 -4.312736,-5.2984 -4.559498,-7.515 -1.848636,-15.5244 2.341199,-6.7771 7.518688,-10.8447 22.305173,-17.7451 25.013818,-11.5827 46.946633,-17.4965 79.230473,-21.3164 22.5494,-2.5876 27.35491,-4.1908 28.09423,-9.4892 0.49289,-3.6967 -3.57317,-6.5286 -11.58251,-7.7608 -4.04319,-0.67 -9.01015,-1.0114 -14.66601,-1.0517 z m 1850.83147,13.686 c -25.9571,0.2715 -41.4831,4.0611 -42.3148,10.8999 -0.7394,6.161 1.2319,6.532 35.3642,7.3945 18.2367,0.6161 35.7342,1.7228 41.4023,2.7085 33.0233,6.0378 49.9043,15.2802 49.9043,27.479 0,36.7198 -92.6608,93.7707 -192.8393,118.5381 -62.9659,15.649 -99.4407,19.8394 -140.1035,16.0195 -17.6206,-1.6018 -21.9331,-0.7395 -21.9331,4.3125 0,4.8056 3.3284,8.0091 11.3378,10.5967 29.8195,9.8577 97.96,6.9012 158.0918,-6.7763 17.251,-3.9431 48.6722,-12.8156 64.3213,-18.2373 76.7666,-26.2461 147.3717,-73.3166 166.3476,-110.899 4.1895,-8.2558 4.0652,-17.4961 -0.2475,-24.7661 -5.9146,-10.1041 -14.6628,-15.4043 -40.7856,-24.769 -18.7296,-6.6539 -35.8557,-9.9807 -59.2676,-11.5826 -10.8126,-0.7085 -20.6254,-1.0089 -29.2779,-0.9184 z M 160.86259,2354.8221 c -2.41821,-0.1386 -4.02011,0.7241 -5.6836,2.5108 -6.28427,6.9004 -6.65313,10.4744 -1.60107,16.1426 4.92883,5.6681 14.53916,9.7345 36.96534,15.5259 75.04145,19.592 145.77034,24.5203 271.82518,19.0986 52.24562,-2.218 73.07139,-1.7245 107.94287,2.7114 8.62546,1.109 16.63484,1.7263 17.62061,1.2334 2.09476,-0.7393 2.46356,-4.8057 0.61524,-8.2559 -1.60187,-2.9573 -10.47281,-7.5187 -21.43946,-10.8457 -18.35989,-5.6681 -31.66968,-6.2827 -131.47851,-6.2827 -96.85153,0 -122.85049,-0.8627 -158.21484,-5.0522 -49.90442,-5.9146 -83.91321,-13.4319 -105.96974,-23.2896 -4.92883,-2.2179 -8.16381,-3.3579 -10.58202,-3.4966 z m 1515.47901,72.6241 c -0.2465,0.1232 -1.7247,0.4933 -3.4497,0.7397 -1.7251,0.2465 -8.0099,2.0934 -14.171,4.065 -26.862,8.5022 -52.3688,11.3377 -101.6572,11.4609 -37.459,0 -42.6332,-0.3707 -117.0586,-8.6265 -13.0613,-1.3554 -29.3267,-2.0932 -51.7528,-2.0932 -31.791,0 -33.0246,0 -44.7305,3.3252 -19.9618,5.5449 -27.9692,10.5992 -24.2725,15.0351 1.2322,1.4787 6.0375,1.6005 28.2173,0.9844 31.1749,-0.8625 29.4492,-0.9862 127.04,10.7197 34.9948,4.1895 51.2594,5.1755 87.4863,5.0523 36.8431,0 59.8855,-1.725 81.942,-6.2842 28.8336,-5.9146 41.2807,-13.7988 41.2807,-26.2441 0,-4.1895 -0.4942,-4.9314 -4.314,-6.5333 -2.3411,-0.8625 -4.4368,-1.601 -4.56,-1.601 z m -994.38721,15.5713 c -6.42675,0.1771 -13.31251,6.5946 -13.31251,13.3872 0,14.6632 44.11325,30.5582 110.89893,39.7998 40.78616,5.6681 58.89965,6.7762 110.89892,6.8994 52.36881,0 63.70478,-0.7392 103.99805,-6.2842 37.21272,-5.1752 51.99842,-8.7498 73.19242,-17.8681 14.6633,-6.1611 17.4975,-8.1311 17.4975,-11.4581 0,-6.0378 -5.5443,-7.024 -21.1934,-3.8203 -33.7624,7.2701 -88.3497,13.4313 -134.55759,15.4029 -90.19754,3.8198 -194.81231,-9.6117 -232.27145,-29.8199 -5.05206,-2.7108 -10.59699,-5.4221 -12.44531,-5.915 -0.87795,-0.2464 -1.78745,-0.349 -2.70556,-0.3237 z" />
   <path
      d="m 1511.5963,1604.206 c -1.109,0 -7.2708,3.2048 -13.6783,7.1478 -28.0944,16.8813 -78.9847,33.5151 -138.6236,45.0978 -62.9656,12.1989 -98.9457,16.5126 -186.0625,21.9344 -33.3929,2.0947 -168.1974,2.0947 -200.85093,0 -95.86558,-6.1611 -123.46697,-9.611 -190.12917,-23.6581 -52.36893,-11.0899 -87.24062,-22.5506 -127.53378,-41.773 -8.74866,-4.0663 -16.26649,-7.516 -16.75938,-7.516 -0.6161,0 -2.71017,2.5885 -4.80489,5.7922 -2.21798,3.327 -6.65418,9.4878 -10.10437,13.9237 -6.77712,8.7487 -22.91842,40.2928 -30.68131,59.7616 -20.20821,51.2598 -29.69759,101.287 -29.69759,156.8595 0,46.4542 6.53196,90.569 19.10046,129.0139 6.28424,18.976 19.46811,49.5343 27.47744,63.4582 10.96667,19.0992 35.11852,51.9987 47.93347,65.3066 33.02312,34.5017 73.31601,59.0226 129.13477,78.6147 35.11799,12.3221 72.82423,20.0858 130.24486,26.6165 55.81912,6.5307 96.11312,8.6256 161.17342,8.7488 107.202,0 188.6518,-8.1326 258.7642,-25.8764 46.7008,-11.8292 94.88,-33.6389 122.4816,-55.5722 20.2082,-16.0187 42.7584,-38.6912 56.1895,-56.435 18.3599,-24.3977 36.3501,-59.8856 50.3973,-99.809 8.1325,-23.0423 12.8147,-43.6205 17.6203,-77.1365 2.3412,-16.3884 2.7111,-24.399 2.7111,-56.0668 0,-36.2268 -1.2322,-51.7523 -5.5449,-74.5481 -2.5877,-13.8007 -10.9664,-45.4688 -15.7721,-60.0089 -14.0472,-42.2646 -35.2417,-86.7465 -47.9334,-100.5472 -1.7251,-1.8483 -4.0665,-3.3285 -5.0522,-3.3285 z m -41.681,53.0308 c -10.2583,4.1433 -20.7315,8.0869 -26.4612,9.812 5.7297,-1.7251 16.2029,-5.6687 26.4612,-9.812 z m -739.09324,39.5402 c 2.51063,0.1233 6.82225,0.8305 14.83162,2.1859 7.51648,1.3554 24.39899,4.5597 37.58364,7.2705 45.715,9.488 95.37246,16.759 150.32903,21.9343 11.82922,1.109 22.05693,2.4637 22.54982,2.9566 0.6161,0.4929 0.2457,2.5884 -0.74007,4.4367 -3.08052,6.0378 -11.58167,46.4543 -15.52474,74.4254 -4.06629,27.6014 -5.42222,48.3027 -5.42222,81.3258 0,57.7905 6.40799,108.5567 20.20874,158.3378 9.11836,33.516 24.39764,72.0849 39.30739,99.6863 4.6824,8.7487 8.25523,16.2652 8.00873,16.6349 -1.4786,1.4786 -58.40613,-1.4781 -83.78966,-4.3122 -25.01387,-2.7108 -51.62973,-7.5165 -62.34996,-11.0899 -17.74383,-5.7913 -38.56929,-20.8249 -63.95282,-46.0851 -72.94658,-72.577 -108.92712,-162.7745 -104.49116,-261.7207 1.35543,-30.1891 5.29902,-52.9863 14.66378,-84.2843 6.53067,-21.8101 19.7161,-54.0928 24.76816,-60.3771 0.80094,-0.9858 1.50909,-1.4481 4.01972,-1.3249 z" />
   <path
      d="m 952.04963,1322.0311 -7.64069,0.123 c -17.74383,0.4929 -69.37319,5.9144 -110.03613,11.5825 -84.40615,11.9525 -146.01598,28.7089 -175.83542,47.8082 -11.95241,7.5165 -37.9526,29.206 -40.04736,33.3955 -1.72508,3.3269 -2.21802,11.5823 -3.08056,60.501 -0.98577,58.4065 -0.73823,67.1556 2.34228,74.5488 5.54493,13.5543 29.57342,27.3551 74.42578,42.5112 20.8243,7.1468 29.32581,9.3642 59.63819,16.0181 40.41649,8.9951 80.46271,15.2787 126.91703,20.2075 123.34395,13.0614 223.76875,14.1723 353.02735,3.8218 62.8426,-5.0521 146.0182,-18.2386 194.0742,-30.8071 43.9898,-11.5828 79.2315,-25.7522 94.018,-38.0743 12.4454,-10.3505 11.83,-6.0385 11.9532,-78.3691 v -62.8433 l -4.0664,-8.3774 c -4.5592,-9.2416 -12.1999,-16.389 -30.4366,-28.5879 -27.355,-18.2367 -85.3933,-37.0886 -145.4018,-47.3159 -31.4213,-5.2985 -75.5333,-10.968 -89.9502,-11.4609 l -8.625,-0.3692 -6.9009,13.8003 -6.7779,13.8017 9.2417,0.6153 c 58.7765,4.5591 132.0924,20.9462 162.1583,36.2256 20.7011,10.4738 27.6031,22.4263 19.5937,34.1323 -4.0663,6.0379 -6.7784,8.2572 -16.7593,13.5557 -21.5636,11.4596 -58.8991,21.4402 -113.3628,30.1889 -48.549,7.7629 -122.727,13.9255 -186.432,15.5273 -42.0184,0.9858 -132.70995,-1.3564 -169.42981,-4.4369 -150.69894,-12.815 -235.47551,-38.446 -226.85006,-68.7583 1.84832,-6.5307 6.16158,-11.3356 15.15672,-17.127 10.84345,-7.0236 21.07141,-11.2129 41.03321,-16.7578 44.60601,-12.4453 92.41343,-19.838 171.76764,-26.3687 l 7.88664,-0.6181 -0.86132,-8.1313 c -0.36966,-4.5592 -0.73969,-10.844 -0.73969,-14.1709 z m -43.91018,86.4887 c -0.43559,0 -0.87574,0 -1.31834,0.018 -10.62203,0.2946 -23.09631,4.2453 -30.30474,10.3447 -7.88614,6.5306 -8.38112,11.336 -1.60396,15.772 4.31273,2.7108 5.05144,2.588 14.90912,-2.3409 4.80562,-2.3412 12.20036,-5.1751 16.63632,-6.2841 10.22734,-2.5877 11.82971,-3.4493 14.17091,-7.8853 2.46442,-4.6824 1.35383,-7.0246 -4.0679,-8.6265 -2.5068,-0.6739 -5.37206,-0.9939 -8.42141,-0.9976 z m 325.94815,8.6075 c -6.0531,0 -11.8138,0.3389 -20.1928,1.0166 -13.5543,1.109 -14.5405,1.4777 -17.3745,6.8994 -3.5735,6.5307 -3.4511,6.5308 32.7759,9.2417 25.8764,1.9715 56.6836,7.8866 56.6836,11.0904 0,0.6161 -3.5754,3.9428 -8.0113,7.393 -10.3505,8.1326 -10.5959,10.3506 -0.7382,9.3648 12.1988,-1.3554 30.9277,-9.1179 35.7333,-14.9093 1.4787,-1.7251 1.3562,-2.7113 -0.4921,-6.9008 -5.545,-12.4454 -24.5219,-19.838 -56.4361,-22.1792 -9.5496,-0.6777 -15.8945,-1.0166 -21.9478,-1.0166 z" />
   <path
      d="m 1080.9924,0.02866769 c -0.395,0.0469472 -0.8668,0.15230118 -1.4253,0.31791023 -2.2332,0.66231298 -5.8383,2.29437538 -11.3217,5.06684838 -25.8764,12.9382067 -54.955,37.9524437 -69.49513,59.8857857 -14.17042,21.194015 -23.65807,44.482298 -25.13672,61.486798 -1.60187,18.35993 5.4216,38.32334 17.74371,50.64544 9.36484,9.24158 16.75884,12.69078 28.46484,13.18366 27.7247,1.35543 48.0557,-16.01824 48.0557,-40.78566 0,-9.73446 -2.5889,-17.62122 -9.4893,-28.5879 -12.6918,-20.20824 -16.1413,-32.653319 -13.9234,-48.918494 3.327,-23.781533 10.8432,-39.059954 29.2032,-59.884183 4.9288,-5.5449462 8.9956,-10.7218309 8.9956,-11.337936 0,-0.83174188 -0.4862,-1.21311094 -1.6715,-1.07226931 z m 13.5777,43.18354531 c -2.0177,0.246443 -2.9118,0.893353 -4.144,2.125563 -4.9288,4.682399 -3.6969,8.502497 7.393,23.658682 14.7865,20.208248 34.3789,52.122122 43.3741,70.728492 15.4026,31.79103 20.4549,51.75222 20.5781,81.32514 0.1232,27.35506 -3.4488,46.20924 -13.4297,69.62111 -5.1753,12.07566 -16.6365,31.78979 -24.7691,42.3868 -13.6775,17.74382 -38.9364,41.64858 -67.2773,63.33535 -16.6348,12.93821 -61.11809,42.75955 -91.92335,61.98202 -11.21311,6.90038 -25.75294,16.01812 -32.28366,20.08441 -78.61489,48.91875 -134.06496,89.95135 -172.75636,127.53376 -37.33597,36.4733 -64.93785,72.94635 -82.68164,109.17333 -18.72956,38.44496 -27.23246,70.85184 -28.58789,109.05023 -1.60186,43.98991 6.65496,83.29778 26.24706,124.20704 19.96177,41.77192 40.53986,69.99026 76.64356,105.23146 32.53035,31.6678 58.65333,51.3823 112.99368,85.6377 13.92397,8.7486 37.08891,21.3182 54.33985,29.4506 8.00937,3.8199 21.3181,10.1034 29.45069,14.0465 16.26517,7.7629 23.65868,10.7199 24.64445,9.6109 1.35543,-1.3555 -2.09488,-19.0983 -5.05219,-25.629 -8.00936,-17.4974 -25.01386,-38.9377 -60.13185,-75.7807 -40.53972,-42.6345 -64.56893,-73.3179 -81.08054,-103.75346 -30.92848,-56.80476 -41.03162,-104.36672 -34.87069,-162.89646 3.20375,-30.06593 10.84271,-54.95707 26.49178,-85.7622 9.85768,-19.3457 21.19463,-38.07566 30.68265,-50.52099 23.04221,-30.18915 65.92349,-71.71512 101.41102,-98.20752 21.31724,-15.89551 101.16413,-68.87956 134.06393,-88.84137 43.6203,-26.61574 89.458,-68.26407 115.4577,-104.98382 16.1419,-22.9191 28.2172,-49.78277 33.3925,-74.67341 1.8483,-8.87192 2.4664,-10.35007 4.8076,-10.71974 4.1895,-0.6161 5.0509,2.8347 3.9419,15.1568 -3.2037,32.65357 -20.8243,70.85061 -48.7954,105.72216 -22.303,27.72473 -43.0037,46.70027 -79.1075,72.94623 -8.5021,6.03783 -19.838,14.4171 -25.2597,18.4834 -5.5449,4.06629 -17.375,12.07677 -26.3701,17.86815 -71.96088,46.08467 -79.35377,51.25847 -107.20172,73.68457 -10.35056,8.37903 -23.16506,18.60786 -28.34034,22.79737 -21.31711,17.12772 -47.93409,46.82534 -63.45993,70.607 -24.39777,37.70563 -35.98214,67.03162 -42.38964,107.20167 -2.9573,18.85282 -2.95459,54.46308 0.12594,71.96046 7.14681,41.1557 17.49553,70.35883 38.68955,109.05023 15.89551,28.83373 41.40251,60.37853 90.07469,110.89893 19.71536,20.3315 27.9724,30.9298 34.37989,43.6216 9.73446,18.8528 15.15656,37.8271 15.27978,51.9975 0,11.9525 0.98488,12.692 7.88528,6.0381 13.8006,-13.4311 26.8607,-31.544 36.2255,-50.1503 13.1847,-26.4925 16.1439,-38.1981 16.2671,-65.6763 0,-16.0188 -0.4927,-21.6873 -3.2036,-34.9952 -1.8483,-8.7487 -5.2995,-21.1944 -7.6407,-27.7251 -5.1752,-13.9238 -23.7805,-51.38339 -38.0741,-76.52048 -5.545,-9.85768 -12.69169,-22.91775 -15.649,-28.95546 -11.95243,-23.90488 -23.16567,-56.68315 -26.8623,-78.86281 -2.46442,-14.17041 -2.71222,-18.85368 -2.09611,-41.89601 0.73932,-27.35506 2.9589,-45.34484 7.14842,-58.40627 1.35543,-4.31273 2.09377,-8.13209 1.72411,-8.62498 -2.3412,-2.21797 -20.57816,22.18053 -36.10401,48.18016 -29.57304,49.28816 -42.51137,122.4817 -29.94283,170.04489 4.55918,17.0045 4.55992,17.00388 1.47939,17.00388 -9.3648,0 -22.30362,-44.48229 -22.30362,-77.01264 0,-43.12736 12.3221,-86.625 36.22698,-128.15036 24.52098,-42.26481 64.32273,-88.96471 114.10397,-133.44725 11.8293,-10.72023 25.1364,-22.67427 29.5724,-26.86379 9.2415,-8.62547 32.2842,-26.36979 53.6015,-41.15631 26.9854,-18.85282 57.2975,-43.61852 78.9844,-64.44287 15.4026,-14.78652 38.3211,-43.86705 48.0556,-60.87155 23.1655,-40.66294 34.1321,-87.85782 30.189,-129.75297 -3.6966,-38.19839 -13.9247,-73.19365 -31.6684,-108.55809 -7.0236,-14.04719 -27.4776,-46.08232 -36.8424,-57.66497 -3.6966,-4.55918 -6.7777,-8.74882 -6.7777,-9.2417 0,-2.3412 5.9161,-0.12334 11.3378,4.18939 17.867,14.17042 44.236,50.14899 59.3921,81.20068 21.0707,43.12736 26.3691,67.15706 25.0137,113.98092 -1.109,39.43073 -7.0241,63.33475 -24.5215,98.08307 -10.7202,21.44046 -25.259,42.01936 -41.4009,58.40775 -5.1753,5.29851 -22.0566,20.94671 -37.336,34.74747 -35.8572,32.40713 -51.1373,50.27541 -62.7201,73.81062 -16.2652,33.02311 -23.5353,71.59055 -21.687,114.59469 1.8483,44.60601 14.5386,83.79078 39.4291,121.9893 10.3506,15.77229 39.4322,49.28681 53.9722,62.22501 19.5921,17.49739 51.9986,50.39703 60.6241,61.48692 17.7437,23.16543 28.7101,43.12846 36.473,66.54046 6.1611,18.3599 7.3934,26.986 8.256,55.5733 1.2322,47.9327 -3.9431,77.6295 -24.8907,142.9365 -9.488,29.3266 -11.2135,35.4874 -10.1045,36.4732 2.218,2.218 33.2698,-21.8103 59.023,-45.5919 25.137,-23.0422 42.1431,-43.2515 65.3085,-77.1371 40.2933,-59.0228 57.0502,-110.6515 56.8038,-174.97276 -0.2464,-43.25045 -8.3779,-75.16433 -29.8184,-116.44337 -13.4311,-25.87641 -26.3703,-44.23659 -48.0572,-68.26457 -10.3505,-11.45955 -27.3542,-26.00025 -34.7474,-29.69688 -4.436,-2.3412 -8.5035,-3.20399 -8.5035,-1.84856 0,0.24644 3.9452,7.6402 8.874,16.26567 13.924,24.89052 17.4954,33.14608 17.9883,41.64833 0.4929,6.65394 0.1228,7.76354 -2.8345,10.96729 -3.0805,3.45019 -3.5721,3.4492 -11.2118,2.8331 -14.4169,-1.35543 -33.8853,-14.78739 -53.231,-36.72073 -13.924,-15.64907 -19.9629,-24.15058 -27.233,-38.93698 -11.4595,-22.67267 -16.1411,-40.90815 -16.1411,-62.10216 0,-35.98042 13.5542,-69.3743 37.459,-92.66307 13.8007,-13.43109 27.848,-22.54994 64.1982,-42.14208 22.0566,-11.82922 47.44,-30.806 60.255,-45.09964 27.8478,-30.92835 42.3889,-65.42925 44.9765,-106.46185 2.7109,-42.51125 -4.3133,-73.56258 -25.5073,-114.34861 -16.7581,-32.40713 -42.3895,-66.41724 -73.5645,-97.71538 -43.1273,-43.25045 -92.6608,-79.10691 -147.2475,-106.461851 -22.6726,-11.459555 -66.6629,-26.98602 -86.8712,-30.682651 -4.0663,-0.739326 -12.938,-1.725094 -19.7152,-2.094757 -5.7298,-0.369663 -8.8719,-0.52332 -10.8897,-0.276878 z M 768.35087,293.09853 c -0.33221,-0.0175 -0.73181,0.0364 -1.19389,0.15957 -1.84832,0.49288 -4.68412,2.09402 -8.0727,4.68166 -11.21312,8.62547 -30.55734,41.52647 -37.33449,63.58303 -3.45019,10.96667 -6.28418,29.45069 -6.28418,40.91012 0,27.10862 13.55262,51.38329 34.37697,61.11775 7.14682,3.45019 9.48949,3.94184 18.60785,3.94184 9.11836,0 11.45968,-0.49326 18.6065,-3.82022 17.12772,-8.13259 25.13672,-20.33049 25.13672,-38.07431 0,-8.7487 -0.49375,-10.84395 -4.56004,-19.3462 -4.6824,-9.85768 -8.99489,-14.78689 -26.12261,-29.81973 -5.29851,-4.80562 -11.33658,-11.08891 -13.30812,-14.16943 -9.11836,-14.41686 -10.10314,-35.48889 -2.70988,-56.19002 1.7251,-4.80562 3.45056,-9.60902 3.82022,-10.84123 0.41587,-1.38624 0.0341,-2.08046 -0.96235,-2.13283 z m 323.06243,332.73335 c -1.7251,0 -26.0011,22.18064 -31.0531,28.46479 -15.5259,18.85282 -25.3822,33.76108 -33.145,49.77982 -20.8244,42.75769 -27.97155,73.0708 -26.7393,114.59616 0.9857,32.53035 6.4062,54.95695 20.5766,83.79054 10.4738,21.44046 22.6738,36.84284 46.9482,59.26907 55.0798,50.64384 65.7997,61.48664 82.1881,83.41984 11.2131,14.9098 21.317,37.2132 27.1084,59.8858 2.9573,11.8292 3.3268,15.1568 3.2036,35.858 0,19.3457 -0.3688,24.6438 -2.71,34.5014 -6.0378,25.137 -16.8823,51.6286 -29.3276,71.2207 -6.2843,9.8577 -22.1799,29.4503 -25.8765,31.7915 -5.4218,3.5734 -17.7421,1.3556 -17.7421,-3.2036 0,-2.0947 3.9433,-7.7617 14.2938,-20.5767 28.957,-35.7341 42.3873,-103.3836 29.5723,-149.4682 -5.7913,-21.3172 -18.6079,-45.5917 -31.0531,-59.1461 -12.1989,-13.1845 -23.0413,-22.9186 -23.6574,-21.0703 -0.2464,0.8626 0.1235,4.9278 0.8628,9.1173 2.218,11.8292 3.4497,38.3228 2.464,55.2041 -1.2322,23.2887 -5.7922,39.6773 -18.1143,65.1841 -12.6917,26.3693 -20.3307,37.09 -71.0976,99.1934 -23.04236,28.2175 -32.65286,50.6434 -32.65286,75.9037 0,41.8951 17.37441,74.0566 66.16996,122.852 19.4688,19.4689 17.7437,18.8514 58.16,19.7139 l 32.7775,0.6167 8.3774,-8.7481 c 27.4783,-28.2174 68.3881,-95.6204 87.7338,-144.416 22.303,-56.1885 38.3217,-117.4289 42.6343,-163.267 1.8483,-19.4689 0.8624,-58.1604 -1.9717,-74.5488 -8.7487,-52.2457 -37.2121,-106.21566 -80.2163,-152.05375 -39.061,-41.52549 -46.9469,-50.02872 -55.0795,-60.50239 -31.2981,-40.17005 -46.3319,-77.38452 -50.2749,-125.3175 -2.218,-25.99951 1.2311,-75.90168 7.0225,-100.17623 0.8625,-4.06629 1.7256,-9.73556 1.7256,-12.69287 0,-2.83408 -0.4915,-5.17528 -1.1076,-5.17528 z" />
</svg>